<?xml version="1.0" standalone="no"?>
<!DOCTYPE svg PUBLIC "-//W3C//DTD SVG 20010904//EN"
 "http://www.w3.org/TR/2001/REC-SVG-20010904/DTD/svg10.dtd">
<svg version="1.0" xmlns="http://www.w3.org/2000/svg"
 width="1135.000000pt" height="1135.000000pt" viewBox="0 0 1135.000000 1135.000000"
 preserveAspectRatio="xMidYMid meet">
<metadata>
Created by potrace 1.11, written by Peter Selinger 2001-2013
</metadata>
<g transform="translate(0.000000,1135.000000) scale(0.100000,-0.100000)"
fill="#000000" stroke="none">
<path d="M7760 8250 c-14 -4 -33 -6 -42 -4 -10 1 -18 -2 -18 -7 0 -6 -3 -8 -8
-6 -7 5 -49 -13 -102 -44 -38 -22 -137 -124 -132 -137 2 -7 8 -12 14 -12 5 0
23 -9 39 -21 16 -11 29 -16 29 -11 0 13 46 59 94 94 138 100 371 50 454 -99 8
-14 14 -13 50 9 l41 24 -26 40 c-36 52 -88 98 -143 126 -25 13 -47 25 -50 28
-7 7 -28 12 -70 17 -72 8 -106 9 -130 3z"/>
<path d="M7730 8032 c-30 -9 -61 -21 -69 -26 -34 -27 -100 -99 -96 -106 3 -5
20 -17 39 -28 l34 -20 24 25 c49 53 123 76 192 61 44 -10 115 -57 116 -75 0
-7 7 -13 15 -13 19 0 85 32 85 41 0 22 -73 92 -123 118 -72 38 -141 45 -217
23z"/>
<path d="M7725 7700 c1 -8 -1 -27 -6 -42 -4 -16 -4 -28 1 -28 6 0 5 -11 0 -26
-7 -16 -7 -23 0 -19 6 4 7 -2 1 -18 -5 -13 -5 -30 -1 -37 5 -8 4 -22 -1 -32
-7 -13 -6 -18 3 -18 8 0 9 -3 3 -8 -10 -7 -15 -229 -19 -774 0 -126 -4 -228
-8 -228 -4 0 -3 -11 2 -24 5 -13 6 -26 3 -29 -3 -4 -6 -107 -8 -230 -1 -123
-5 -229 -8 -235 -4 -5 -1 -13 5 -16 10 -4 10 -7 1 -12 -8 -3 -9 -15 -3 -35 5
-16 6 -29 2 -29 -4 0 -8 -11 -8 -25 -1 -15 2 -22 9 -18 6 4 7 1 2 -7 -5 -8
-10 -91 -11 -184 -2 -94 -3 -171 -4 -171 -5 0 -2 -124 4 -133 3 -6 3 -13 -2
-16 -10 -6 -9 -57 1 -73 5 -7 5 -13 0 -13 -4 0 -9 -69 -10 -153 -1 -164 -12
-772 -13 -772 0 0 -2 -110 -4 -245 -3 -135 -6 -315 -7 -400 l-3 -155 162 -3
162 -2 -4 263 c-2 145 -6 269 -10 275 -3 6 -2 13 2 16 9 6 8 53 -1 63 -3 2 -1
18 3 34 6 19 5 29 -2 29 -6 0 -6 6 2 15 7 8 9 15 4 15 -5 0 -10 89 -11 198 -1
108 -5 319 -8 467 -5 257 -7 373 -20 1135 -3 179 -7 355 -8 393 -2 37 1 67 6
67 4 0 5 6 0 12 -4 7 -8 74 -9 148 -1 74 -5 295 -9 490 -4 195 -8 411 -9 480
l-2 124 -86 1 c-71 0 -85 -2 -83 -15z"/>
<path d="M6406 7573 c-2 -2 -35 -6 -147 -18 -15 -1 -31 -5 -37 -9 -11 -6 -9
-60 3 -90 6 -14 5 -17 -4 -11 -10 6 -11 3 -2 -13 6 -11 12 -37 14 -58 2 -22 7
-46 10 -54 3 -8 6 -23 7 -32 4 -58 6 -68 14 -68 5 0 7 -3 3 -6 -3 -3 0 -26 8
-50 7 -24 11 -44 8 -44 -3 0 0 -7 7 -15 7 -8 10 -15 6 -15 -3 0 3 -24 15 -52
11 -29 22 -57 23 -63 12 -43 88 -196 115 -231 9 -12 23 -32 31 -44 8 -13 23
-32 33 -42 9 -10 17 -20 17 -23 0 -6 59 -64 107 -105 36 -30 61 -47 91 -60 12
-5 22 -14 22 -20 0 -6 5 -8 10 -5 6 3 10 1 10 -6 0 -7 3 -9 7 -6 3 4 13 1 22
-6 19 -16 135 -57 171 -62 14 -1 54 -6 90 -11 72 -10 243 -10 305 -1 22 3 58
8 79 12 22 3 45 10 51 15 7 6 15 7 18 4 12 -12 53 24 54 47 1 13 7 60 13 105
10 72 8 206 -4 274 -3 14 -7 41 -10 60 -3 19 -10 50 -15 68 -5 17 -7 32 -3 32
4 0 2 4 -3 8 -6 4 -16 25 -23 47 -17 52 -45 105 -54 105 -4 0 -5 8 -1 18 3 9
3 14 -2 10 -4 -4 -17 9 -28 30 -23 42 -40 63 -117 138 -30 30 -61 54 -67 54
-7 0 -13 5 -13 10 0 6 -7 10 -15 10 -8 0 -15 5 -15 10 0 6 -7 10 -15 10 -8 0
-15 5 -15 12 0 6 -3 9 -6 5 -3 -3 -24 5 -45 19 -21 13 -43 24 -49 24 -6 0 -22
7 -35 16 -14 9 -25 14 -25 11 0 -3 -16 1 -36 9 -20 8 -39 13 -41 10 -3 -3 -15
0 -27 6 -11 7 -35 12 -52 13 -17 1 -35 4 -40 7 -23 14 -406 33 -418 21z"/>
<path d="M9104 7130 c-3 -2 -19 -5 -37 -6 -64 -3 -152 -16 -163 -25 -6 -5 -14
-6 -17 -3 -3 4 -14 3 -24 -1 -10 -5 -20 -9 -23 -9 -35 -8 -107 -31 -115 -36
-5 -4 -25 -11 -42 -15 -18 -3 -33 -11 -33 -16 0 -5 -6 -9 -14 -9 -7 0 -25 -9
-38 -20 -14 -10 -28 -16 -32 -13 -3 3 -6 0 -6 -7 0 -7 -3 -10 -7 -7 -3 4 -12
-2 -20 -13 -8 -11 -21 -20 -29 -20 -8 0 -14 -5 -14 -12 0 -6 -3 -9 -6 -6 -3 3
-19 -7 -35 -23 -16 -16 -35 -29 -41 -29 -6 0 -9 -2 -6 -5 3 -3 -16 -27 -42
-54 -26 -27 -56 -62 -66 -80 -10 -17 -22 -31 -26 -31 -4 0 -8 -6 -8 -14 0 -7
-7 -19 -15 -26 -9 -7 -13 -15 -11 -17 5 -5 -3 -15 -32 -48 -7 -8 -10 -19 -7
-25 3 -5 1 -10 -4 -10 -6 0 -11 -9 -11 -20 0 -11 -5 -20 -12 -20 -6 0 -8 -3
-5 -6 4 -4 0 -19 -8 -33 -13 -24 -56 -158 -60 -191 -2 -14 -5 -25 -20 -90 -13
-59 -28 -358 -19 -396 4 -16 11 -20 30 -16 13 2 24 0 24 -5 0 -5 23 -16 50
-23 28 -7 50 -16 50 -20 0 -3 8 -6 18 -7 9 -1 31 -7 47 -14 17 -7 35 -13 40
-14 6 -2 30 -8 55 -16 65 -18 72 -20 100 -24 14 -1 25 -4 25 -5 0 -1 14 -3 30
-5 17 -1 30 -3 30 -5 0 -1 23 -3 50 -4 28 -1 56 -5 63 -9 7 -5 12 -4 12 2 0
13 22 10 33 -4 6 -6 10 -5 14 3 4 10 8 10 21 0 9 -7 13 -8 9 -2 -4 7 5 11 26
11 50 -1 91 7 99 18 5 6 8 5 8 -3 0 -9 5 -10 19 -3 10 6 21 7 25 4 3 -3 6 -1
6 5 0 7 3 11 8 10 14 -4 112 26 112 34 0 5 4 7 9 4 5 -4 11 -3 13 1 1 5 29 21
61 38 31 16 57 33 57 37 0 4 3 7 8 5 8 -2 32 16 60 46 9 9 20 17 24 17 8 0 48
37 48 44 0 3 14 20 31 38 17 18 44 52 60 76 17 23 35 42 40 42 6 0 8 4 4 10
-3 5 3 18 15 30 11 11 17 20 13 20 -5 0 -3 4 2 8 14 10 35 49 35 66 0 8 3 16
8 18 10 4 49 86 57 121 4 15 12 27 18 27 6 0 8 3 4 6 -3 4 0 19 9 35 8 16 12
29 10 29 -3 0 -1 12 5 28 6 15 13 36 15 46 2 11 7 22 12 25 4 3 7 16 6 29 -1
12 3 22 8 22 5 0 7 4 4 8 -3 5 1 19 7 33 7 13 12 34 11 47 -1 12 2 22 5 22 4
0 6 14 5 30 -1 17 2 30 6 30 7 0 26 109 23 138 0 6 2 12 6 12 3 0 6 12 7 28 0
15 3 55 7 89 3 35 2 65 -3 68 -4 3 -24 6 -44 7 -20 2 -36 5 -36 8 0 3 -15 7
-33 8 -18 1 -44 5 -57 7 -107 21 -482 40 -496 25z"/>
<path d="M728 5726 c-1 -2 -32 -6 -68 -9 -36 -4 -75 -9 -88 -11 -32 -7 -164
-68 -180 -83 -7 -7 -17 -13 -22 -13 -18 0 -119 -112 -148 -162 -29 -52 -59
-139 -64 -188 -2 -14 -6 -29 -9 -35 -11 -19 -2 -160 15 -222 27 -101 69 -176
136 -240 60 -57 64 -60 120 -94 30 -18 57 -35 60 -39 3 -3 93 -49 201 -102
107 -54 205 -105 216 -115 49 -41 59 -51 82 -78 91 -108 76 -297 -33 -393 -65
-57 -139 -81 -238 -77 -78 3 -140 21 -191 56 -39 27 -95 88 -103 112 -3 9 -9
17 -14 17 -4 0 -11 10 -15 23 -4 12 -8 24 -9 27 -1 3 -6 15 -10 28 -7 22 -9
22 -25 8 -10 -9 -22 -16 -27 -16 -5 0 -36 -13 -69 -29 -56 -27 -106 -49 -182
-82 -18 -8 -33 -17 -33 -22 0 -11 60 -140 68 -147 4 -3 14 -17 22 -31 21 -38
78 -98 135 -144 28 -22 52 -43 55 -46 3 -4 15 -9 28 -13 12 -4 22 -11 22 -16
0 -8 48 -25 63 -22 4 1 7 -2 7 -8 0 -9 117 -48 175 -58 84 -14 252 -5 325 18
19 6 43 13 52 15 22 5 92 37 98 45 3 4 16 13 29 20 71 37 180 153 219 232 17
36 32 68 32 71 0 3 5 18 12 34 6 15 13 39 15 52 2 14 8 32 14 42 6 12 5 20 -1
24 -7 4 -8 11 -2 18 18 22 3 237 -19 278 -5 10 -7 19 -4 19 10 0 -47 105 -88
160 -22 30 -60 71 -84 90 -24 19 -51 43 -61 53 -9 9 -21 17 -26 17 -5 0 -17 6
-25 14 -19 16 -177 97 -238 122 -24 10 -43 21 -43 24 0 4 -18 13 -40 20 -21 7
-37 17 -34 21 3 5 -4 9 -15 9 -12 0 -21 4 -21 9 0 5 -13 14 -30 21 -16 7 -30
17 -30 23 0 6 -3 8 -6 4 -12 -11 -87 68 -105 111 -21 49 -24 120 -6 169 15 40
70 99 100 109 12 3 31 14 41 23 15 13 18 13 11 1 -7 -12 -6 -13 6 -4 14 11 96
11 137 1 32 -8 89 -45 117 -75 21 -23 43 -66 59 -116 6 -17 8 -18 24 -2 10 9
22 16 26 16 5 0 22 7 39 15 18 8 77 34 132 59 55 25 101 50 103 55 6 19 -58
140 -100 188 -22 27 -65 64 -94 84 -29 20 -50 40 -46 44 4 3 2 5 -3 4 -6 -1
-35 9 -65 23 -71 34 -121 47 -195 54 -33 3 -65 7 -72 9 -6 2 -13 2 -15 1z"/>
<path d="M6115 5242 c0 -248 -2 -452 -5 -452 -3 0 -25 20 -49 45 -24 25 -50
45 -58 45 -7 0 -13 4 -13 8 0 11 -81 46 -156 68 -72 21 -229 26 -302 9 -50
-12 -59 -14 -64 -16 -2 0 -11 -2 -22 -4 -35 -7 -161 -73 -201 -106 -156 -128
-262 -305 -280 -469 -2 -14 -4 -25 -5 -25 -1 0 -3 -13 -3 -30 -1 -16 -5 -35
-9 -41 -4 -6 -5 -14 -1 -18 3 -3 7 -36 9 -74 1 -37 3 -67 4 -67 2 0 6 -17 15
-65 9 -50 53 -155 93 -224 39 -66 123 -154 193 -201 24 -16 50 -36 57 -43 8
-7 18 -10 23 -7 5 4 9 3 9 -2 0 -12 73 -40 162 -63 51 -13 197 -17 263 -8 58
9 146 39 178 60 15 11 27 16 27 11 0 -4 4 -3 8 2 4 6 23 22 42 36 19 15 50 41
68 60 30 31 32 31 33 11 1 -12 3 -40 4 -62 1 -22 3 -53 4 -69 l1 -29 164 0
c90 0 167 3 172 7 13 9 12 2161 -1 2162 -5 1 -89 2 -185 3 l-176 1 1 -453z
m-317 -598 c18 -2 40 -8 48 -14 7 -7 18 -9 23 -6 5 4 12 2 16 -4 3 -5 20 -16
38 -25 42 -19 110 -84 141 -133 113 -179 67 -441 -99 -559 -44 -31 -96 -57
-107 -55 -5 1 -8 -2 -8 -6 0 -8 -37 -15 -77 -14 -13 0 -23 -4 -23 -10 0 -5 -3
-7 -8 -5 -4 3 -27 6 -52 8 -25 1 -49 5 -55 8 -5 3 -14 6 -20 7 -24 4 -40 9
-45 14 -3 3 -22 14 -43 24 -53 27 -131 105 -158 157 -71 140 -65 308 17 434
32 49 113 125 133 125 6 0 11 4 11 9 0 5 10 12 23 16 12 4 24 8 27 9 30 12 92
25 118 24 18 -1 35 2 39 5 3 4 10 4 16 0 5 -3 26 -7 45 -9z"/>
<path d="M6862 4609 l1 -1087 183 0 184 0 -2 1086 -3 1087 -181 0 -182 0 0
-1086z"/>
<path d="M9999 5685 c-1 -5 -2 -493 -3 -1083 -1 -1065 -1 -1073 19 -1078 11
-2 94 -3 185 -2 l165 3 -1 378 c0 207 3 377 7 377 4 0 9 -6 12 -14 3 -8 29
-46 56 -84 28 -39 51 -75 51 -81 0 -7 5 -9 10 -6 6 3 10 2 10 -4 0 -12 190
-303 205 -313 5 -4 6 -8 2 -8 -8 0 7 -21 36 -48 9 -9 17 -21 17 -26 0 -5 12
-25 28 -45 15 -19 29 -40 32 -46 3 -5 16 -27 29 -47 l23 -38 234 1 c136 0 234
4 234 10 0 5 -4 9 -10 9 -5 0 -10 4 -10 10 0 11 -21 41 -116 170 -38 52 -83
115 -99 140 -17 24 -35 51 -42 60 -7 8 -33 44 -60 80 -26 36 -50 67 -53 70 -3
3 -9 12 -15 22 -9 15 -47 70 -125 180 -38 54 -38 54 47 145 63 67 211 227 243
262 14 15 70 76 125 135 55 59 103 113 107 119 5 9 -51 12 -226 12 l-232 0
-31 -35 c-16 -19 -38 -46 -49 -59 -10 -13 -34 -40 -53 -60 -47 -51 -123 -139
-166 -191 -20 -25 -65 -76 -100 -115 -34 -38 -76 -85 -92 -104 l-29 -33 1 667
c0 434 -3 669 -10 673 -17 11 -355 8 -356 -3z"/>
<path d="M2318 4975 c-2 -1 -32 -6 -68 -9 -35 -4 -67 -10 -70 -14 -3 -4 -18
-8 -35 -8 -16 -1 -43 -8 -60 -15 -16 -7 -32 -13 -35 -13 -22 -4 -70 -30 -70
-38 0 -5 -4 -7 -8 -4 -5 3 -21 -6 -37 -20 -15 -13 -32 -24 -37 -24 -4 0 -37
-28 -73 -62 -62 -58 -123 -142 -157 -218 -33 -73 -48 -113 -43 -118 3 -3 1
-10 -4 -16 -5 -6 -11 -30 -13 -54 -3 -23 -7 -45 -11 -48 -3 -3 -2 -17 3 -30 5
-13 6 -24 2 -24 -4 0 -8 -18 -7 -40 0 -22 3 -40 6 -40 3 0 4 -12 3 -27 -6
-111 88 -321 192 -428 48 -50 118 -105 133 -105 6 0 11 -4 11 -8 0 -5 16 -14
35 -22 19 -8 35 -18 35 -22 0 -5 5 -6 10 -3 6 3 10 1 10 -6 0 -7 3 -9 7 -6 3
4 11 3 17 -2 12 -10 120 -39 175 -48 155 -23 399 12 465 67 10 8 19 13 21 10
6 -12 154 96 189 138 6 8 25 28 41 45 17 18 31 39 33 46 2 8 12 26 22 41 l18
26 -31 13 c-18 7 -41 17 -52 21 -66 28 -204 80 -214 80 -6 0 -11 -4 -11 -9 0
-12 -97 -111 -109 -111 -5 0 -11 -3 -13 -7 -3 -8 -75 -47 -87 -49 -3 0 -23 -5
-44 -12 -46 -13 -180 -9 -222 7 -61 24 -85 36 -85 43 0 5 -6 8 -14 8 -24 0
-107 99 -136 163 -15 34 -30 81 -34 105 l-5 42 558 0 559 0 -3 104 c-6 189
-71 350 -188 470 -74 76 -182 156 -211 156 -9 0 -16 4 -16 8 0 14 -160 54
-235 59 -38 2 -78 5 -87 7 -9 2 -18 3 -20 1z m182 -323 c25 -11 51 -27 59 -36
7 -9 20 -16 29 -16 8 0 13 -3 10 -6 -3 -3 7 -19 22 -35 15 -17 37 -48 49 -70
l22 -39 -345 0 c-190 0 -346 3 -346 8 1 24 92 142 109 142 6 0 11 4 11 9 0 5
8 12 18 15 9 4 29 13 44 21 76 43 226 46 318 7z"/>
<path d="M3950 4968 c-75 -7 -247 -51 -260 -67 -3 -3 -23 -15 -45 -26 -42 -21
-45 -23 -85 -56 -132 -108 -206 -214 -250 -355 -64 -208 -38 -441 71 -623 59
-101 229 -247 319 -276 3 -1 16 -6 30 -12 23 -11 62 -24 67 -24 2 0 17 -5 35
-10 139 -42 376 -25 516 38 20 9 40 15 45 15 4 -1 7 2 7 6 0 5 16 14 35 22 19
7 32 17 29 22 -3 4 2 8 10 8 17 0 183 165 187 185 5 27 13 45 20 45 5 0 9 4 9
9 0 4 -42 25 -92 46 -51 21 -106 43 -123 51 -70 30 -71 29 -138 -38 -77 -77
-91 -88 -119 -93 -12 -3 -24 -8 -27 -13 -11 -17 -91 -30 -163 -26 -40 2 -81 4
-92 4 -31 2 -115 49 -160 90 -38 35 -102 115 -105 132 -2 10 -10 34 -18 56 -8
22 -13 42 -16 67 -2 20 5 20 548 22 302 2 555 5 561 7 12 5 11 133 -1 205 -4
22 -7 43 -6 46 0 2 -6 20 -15 40 -8 19 -12 35 -9 35 4 0 -1 10 -9 22 -9 12
-16 30 -16 40 0 10 -5 18 -10 18 -6 0 -9 3 -9 8 3 19 -2 33 -11 27 -5 -3 -10
3 -10 14 0 10 -3 21 -7 23 -5 2 -21 22 -36 45 -31 45 -115 126 -141 136 -9 4
-16 11 -16 17 0 6 -4 8 -10 5 -5 -3 -10 -1 -10 6 0 7 -3 9 -6 6 -4 -4 -19 2
-33 12 -97 66 -279 103 -441 89z m160 -297 c0 -6 6 -8 13 -5 19 7 96 -30 133
-63 33 -29 104 -128 104 -144 0 -5 -148 -9 -346 -9 l-346 0 23 38 c13 20 28
42 34 48 5 6 22 25 37 42 32 37 113 86 128 77 5 -3 10 -2 10 4 0 12 26 16 128
19 51 2 82 -1 82 -7z"/>
<path d="M9148 4975 c-2 -2 -28 -5 -58 -8 -127 -14 -203 -48 -291 -128 l-28
-27 -3 67 -3 66 -181 0 -181 0 1 -710 1 -710 183 -2 182 -2 1 452 c0 248 2
462 5 475 13 71 73 143 149 178 41 19 63 23 125 20 66 -2 82 -7 127 -37 29
-19 53 -40 53 -46 0 -7 5 -13 10 -13 6 0 20 -21 32 -47 20 -46 21 -63 22 -513
l1 -465 180 0 180 0 2 475 c3 520 -2 580 -52 681 -26 53 -97 146 -122 162 -6
4 -19 14 -27 22 -8 8 -17 15 -20 15 -3 0 -15 8 -26 17 -31 27 -108 55 -187 68
-40 7 -74 11 -75 10z"/>
</g>
</svg>
